<?xml version="1.0" encoding="iso-8859-1"?>
<!-- Generator: Adobe Illustrator 16.0.0, SVG Export Plug-In . SVG Version: 6.00 Build 0)  -->
<!DOCTYPE svg PUBLIC "-//W3C//DTD SVG 1.1//EN" "http://www.w3.org/Graphics/SVG/1.1/DTD/svg11.dtd">
<svg version="1.1" id="Capa_1" xmlns="http://www.w3.org/2000/svg" xmlns:xlink="http://www.w3.org/1999/xlink" x="0px" y="0px"
	 width="612px" height="612px" viewBox="0 0 612 612" style="enable-background:new 0 0 612 612;" xml:space="preserve">
<g>
	<g id="_x31__39_">
		<g>
			<path d="M459,18.075c-63.743,0-111.977,37.409-153,76.5c-39.091-41.482-89.256-76.5-153-76.5c-89.773,0-153,77.188-153,161.358
				c0,45.154,18.494,77.686,38.747,108.228l237.781,285.077c26.699,28.248,31.729,28.248,58.427,0l238.316-285.077
				C597.082,257.119,612,224.587,612,179.433C612,95.264,548.772,18.075,459,18.075z M535.5,279.744L306,553.575L76.5,278.615
				c-27.444-38.154-38.25-63.896-38.25-99.182c0-65.752,46.952-124.944,114.75-125.499c55.769-0.459,118.977,56.495,153,99.431
				c33.125-41.444,97.231-99.431,153-99.431c66,0,114.75,59.747,114.75,125.499C573.75,214.719,565.201,242.373,535.5,279.744z"/>
		</g>
	</g>
</g>
<g>
</g>
<g>
</g>
<g>
</g>
<g>
</g>
<g>
</g>
<g>
</g>
<g>
</g>
<g>
</g>
<g>
</g>
<g>
</g>
<g>
</g>
<g>
</g>
<g>
</g>
<g>
</g>
<g>
</g>
</svg>
